<?xml version="1.0" encoding="UTF-8"?>
<svg version="1.1" xmlns="http://www.w3.org/2000/svg" width="40" height="40">
<path d="M0 0 C4.52942542 2.00870171 7.29140965 4.88951943 10 9 C10.8125 11.9375 10.8125 11.9375 10 15 C7.98043161 18.01566987 5.83961938 20.72599586 3 23 C1.68 23 0.36 23 -1 23 C-1.66 21.68 -2.32 20.36 -3 19 C-2.01 18.01 -1.02 17.02 0 16 C-7.26 15.67 -14.52 15.34 -22 15 C-22 13.02 -22 11.04 -22 9 C-14.74 8.67 -7.48 8.34 0 8 C-0.99 7.01 -1.98 6.02 -3 5 C-3 4.01 -3 3.02 -3 2 C-2.01 1.34 -1.02 0.68 0 0 Z " fill="#000000" transform="translate(30,8)"/>
<path d="M0 0 C1.09054688 0.02320312 2.18109375 0.04640625 3.3046875 0.0703125 C4.40039062 0.08835938 5.49609375 0.10640625 6.625 0.125 C7.46804688 0.14820312 8.31109375 0.17140625 9.1796875 0.1953125 C9.1796875 1.8453125 9.1796875 3.4953125 9.1796875 5.1953125 C6.2096875 5.1953125 3.2396875 5.1953125 0.1796875 5.1953125 C0.1796875 15.0953125 0.1796875 24.9953125 0.1796875 35.1953125 C3.1496875 35.1953125 6.1196875 35.1953125 9.1796875 35.1953125 C9.1796875 36.8453125 9.1796875 38.4953125 9.1796875 40.1953125 C7.22165243 40.24920337 5.26319841 40.28805467 3.3046875 40.3203125 C2.21414062 40.34351563 1.12359375 40.36671875 0 40.390625 C-2.8203125 40.1953125 -2.8203125 40.1953125 -4.8203125 38.1953125 C-5.02004983 35.49395927 -5.10012823 32.89734039 -5.0859375 30.1953125 C-5.08785095 29.40382813 -5.0897644 28.61234375 -5.09173584 27.796875 C-5.09309768 26.1223926 -5.08940132 24.44789965 -5.08105469 22.7734375 C-5.0703549 20.20548869 -5.08094975 17.63823947 -5.09375 15.0703125 C-5.0924284 13.44531095 -5.08986601 11.82030984 -5.0859375 10.1953125 C-5.08998596 9.42445312 -5.09403442 8.65359375 -5.09820557 7.859375 C-5.03190047 0.34846956 -5.03190047 0.34846956 0 0 Z " fill="#000000" transform="translate(4.8203125,-0.1953125)"/>
</svg>
