<?xml version="1.0" encoding="UTF-8"?>
<svg version="1.1" xmlns="http://www.w3.org/2000/svg" width="40" height="40">
<path d="M0 0 C0.86367187 -0.00515625 1.72734375 -0.0103125 2.6171875 -0.015625 C3.95136719 0.00757812 3.95136719 0.00757812 5.3125 0.03125 C6.20195312 0.01578125 7.09140625 0.0003125 8.0078125 -0.015625 C8.87148438 -0.01046875 9.73515625 -0.0053125 10.625 0 C11.40488281 0.00451172 12.18476563 0.00902344 12.98828125 0.01367188 C15.3125 0.53125 15.3125 0.53125 20.3125 4.53125 C20.3125 8.82125 20.3125 13.11125 20.3125 17.53125 C10.4125 17.53125 0.5125 17.53125 -9.6875 17.53125 C-9.6875 13.24125 -9.6875 8.95125 -9.6875 4.53125 C-4.05274454 0.02344563 -4.05274454 0.02344563 0 0 Z " fill="#000000" transform="translate(14.6875,22.46875)"/>
<path d="M0 0 C3.125 1.9375 3.125 1.9375 5 5 C5.85447449 8.87361769 5.72438297 12.22526172 4.21875 15.9140625 C2.48550476 18.52631069 0.65570944 19.85165918 -2.3828125 20.5390625 C-6.75214122 20.78687517 -9.33748761 20.39750744 -13.125 18.125 C-15.7769173 13.70513784 -15.98876625 10.02622846 -15 5 C-11.45243133 -0.91261444 -6.34121278 -1.25784713 0 0 Z " fill="#000000" transform="translate(25,0)"/>
</svg>
