<?xml version="1.0" encoding="UTF-8"?>
<svg version="1.1" xmlns="http://www.w3.org/2000/svg" width="40" height="40">
<path d="M0 0 C5.22600955 2.66357906 8.00419699 6.86415347 9.81640625 12.30078125 C10.69202565 22.63309018 5.94741547 28.47849627 -0.37890625 36.296875 C-2.99385593 39.20048795 -3.9282848 39.27525035 -7.93359375 39.67578125 C-11.63737931 39.58902591 -13.90587029 38.76591186 -16.66796875 36.1328125 C-21.96788978 29.72646465 -26.62592354 23.03395441 -26.453125 14.48828125 C-25.86708601 9.73202281 -23.9507546 6.05519815 -20.55859375 2.6875 C-14.53492437 -1.76750548 -7.07100234 -2.26423867 0 0 Z M-18.18359375 9.30078125 C-20.48841379 12.5933813 -20.49042142 15.34558079 -20.18359375 19.30078125 C-18.80836735 22.24709122 -18.80836735 22.24709122 -16.87109375 24.98828125 C-15.94876953 26.38626953 -15.94876953 26.38626953 -15.0078125 27.8125 C-12.89196276 30.86364641 -12.89196276 30.86364641 -10.18359375 33.30078125 C-6.89909943 33.24334176 -5.57846303 32.69090261 -3.234375 30.375 C-2.66074219 29.58738281 -2.08710938 28.79976562 -1.49609375 27.98828125 C-0.91472656 27.20839844 -0.33335938 26.42851562 0.265625 25.625 C3.11196963 21.35906787 4.44359003 18.52731278 3.81640625 13.30078125 C1.77646717 9.64295945 0.31221363 7.63131951 -3.18359375 5.30078125 C-9.20880399 4.42253027 -13.94115565 4.52803839 -18.18359375 9.30078125 Z " fill="#000000" transform="translate(28.18359375,0.69921875)"/>
<path d="M0 0 C2.5625 2.0625 2.5625 2.0625 4 5 C4 8.8137751 3.84985071 11.02424548 1.3125 13.9375 C-1.7864448 15.3613395 -3.62182812 15.55153827 -7 15 C-9.9375 12.9375 -9.9375 12.9375 -12 10 C-12 6.48044581 -11.63108355 4.15079941 -9.9375 1.0625 C-6.72094003 -0.70141999 -3.50614591 -0.73924763 0 0 Z M-5 6 C-5 6.99 -5 7.98 -5 9 C-4.01 8.67 -3.02 8.34 -2 8 C-2.33 7.34 -2.66 6.68 -3 6 C-3.66 6 -4.32 6 -5 6 Z " fill="#000000" transform="translate(24,10)"/>
</svg>
