<?xml version="1.0" encoding="UTF-8"?>
<svg version="1.1" xmlns="http://www.w3.org/2000/svg" width="47" height="47">
<path d="M0 0 C10.97841509 -0.63033962 10.97841509 -0.63033962 14.9375 1.8125 C15.9584375 2.8953125 15.9584375 2.8953125 17 4 C17.86625 4.4125 18.7325 4.825 19.625 5.25 C24.63221669 8.93952809 25.94071428 17.75664436 27.6875 23.625 C27.91244141 24.34945313 28.13738281 25.07390625 28.36914062 25.8203125 C29.61557783 30.00288597 30.25764337 33.58524607 30 38 C28.02 38.66 26.04 39.32 24 40 C22.3372974 37.32521756 21.00016187 35.0004856 20 32 C20.00902344 32.66386719 20.01804688 33.32773437 20.02734375 34.01171875 C19.79756145 40.85523515 19.79756145 40.85523515 17.76171875 43.77734375 C13.50815414 47.27968215 9.05348307 47.76568777 3.6640625 47.46875 C0.25185498 46.86836158 -2.08410302 45.98206315 -4.76171875 43.77734375 C-7.20181963 40.27499075 -7.05633283 36.14448646 -7 32 C-7.6496875 33.7015625 -7.6496875 33.7015625 -8.3125 35.4375 C-8.869375 36.613125 -9.42625 37.78875 -10 39 C-13 40 -13 40 -15.1875 39.0625 C-16.0846875 38.5365625 -16.0846875 38.5365625 -17 38 C-16.4211979 31.09672612 -15.04955353 24.77175072 -13.125 18.125 C-12.74021484 16.72121094 -12.74021484 16.72121094 -12.34765625 15.2890625 C-12.09113281 14.391875 -11.83460937 13.4946875 -11.5703125 12.5703125 C-11.34102051 11.76352051 -11.11172852 10.95672852 -10.87548828 10.12548828 C-8.94576096 5.44054516 -5.35638097 4.17819048 -1 2 C-0.67 1.34 -0.34 0.68 0 0 Z " fill="#E3A6D7" transform="translate(17,0)"/>
<path d="M0 0 C1.8125 0.5 1.8125 0.5 4 2 C6.24473233 7.43272985 8.01143368 12.99422735 9.6875 18.625 C9.91244141 19.34945313 10.13738281 20.07390625 10.36914062 20.8203125 C11.61557783 25.00288597 12.25764337 28.58524607 12 33 C10.02 33.66 8.04 34.32 6 35 C4.3372974 32.32521756 3.00016187 30.0004856 2 27 C2.00902344 27.66386719 2.01804687 28.32773437 2.02734375 29.01171875 C1.79756145 35.85523515 1.79756145 35.85523515 -0.23828125 38.77734375 C-4.49449431 42.28186286 -8.94165328 42.74497764 -14.33203125 42.4921875 C-18.6951599 41.6872765 -20.83248937 40.0971215 -24 37 C-24 35.68 -24 34.36 -24 33 C-23.34 33 -22.68 33 -22 33 C-21.79375 33.598125 -21.5875 34.19625 -21.375 34.8125 C-19.39806737 37.9576201 -17.47078649 38.75575579 -14 40 C-9.18511505 39.83105667 -5.8495274 38.89680155 -2 36 C-1.17053134 33.70521522 -1.17053134 33.70521522 -1.1875 31 C-1.14109375 29.95328125 -1.0946875 28.9065625 -1.046875 27.828125 C-0.95368144 20.21731744 -0.92834737 12.6111021 -1 5 C-0.34 4.67 0.32 4.34 1 4 C1.02578125 4.89460937 1.0515625 5.78921875 1.078125 6.7109375 C1.4468187 14.57081687 2.49765211 20.93014425 6 28 C6.99 28 7.98 28 9 28 C8.07720945 24.4127133 7.1342361 20.8310349 6.1875 17.25 C5.79594727 15.72632813 5.79594727 15.72632813 5.39648438 14.171875 C5.00493164 12.70234375 5.00493164 12.70234375 4.60546875 11.203125 C4.36981201 10.30239258 4.13415527 9.40166016 3.89135742 8.47363281 C2.95421463 5.87293965 1.68484211 4.16651945 0 2 C0 1.34 0 0.68 0 0 Z " fill="#1A1218" transform="translate(35,5)"/>
<path d="M0 0 C2.91886134 0.48183114 4.06898973 0.90479941 6.11328125 2.97265625 C6.69078125 3.79765625 7.26828125 4.62265625 7.86328125 5.47265625 C3.49964489 10.19992898 3.49964489 10.19992898 0.67578125 11.41015625 C0.07765625 11.43078125 -0.52046875 11.45140625 -1.13671875 11.47265625 C-1.79671875 10.81265625 -2.45671875 10.15265625 -3.13671875 9.47265625 C-3.46671875 10.13265625 -3.79671875 10.79265625 -4.13671875 11.47265625 C-6.01171875 11.16015625 -6.01171875 11.16015625 -8.13671875 10.47265625 C-8.79671875 9.48265625 -9.45671875 8.49265625 -10.13671875 7.47265625 C-13.95769114 8.00334686 -16.19843278 8.96967191 -19.13671875 11.47265625 C-18.94921875 9.66015625 -18.94921875 9.66015625 -18.13671875 7.47265625 C-16.50607111 6.41493886 -14.83391002 5.41992579 -13.13671875 4.47265625 C-12.54375 3.79332031 -11.95078125 3.11398438 -11.33984375 2.4140625 C-7.81280351 -0.69398537 -4.51681908 -0.12684596 0 0 Z " fill="#5C3851" transform="translate(26.13671875,-0.47265625)"/>
<path d="M0 0 C0.66 0.33 1.32 0.66 2 1 C2 9.91 2 18.82 2 28 C1.34 28 0.68 28 0 28 C-0.33 26.35 -0.66 24.7 -1 23 C-1.433125 24.134375 -1.86625 25.26875 -2.3125 26.4375 C-2.869375 27.613125 -3.42625 28.78875 -4 30 C-7 31 -7 31 -9.1875 30.0625 C-10.0846875 29.5365625 -10.0846875 29.5365625 -11 29 C-10.50596529 19.94269693 -7.67773223 11.60629066 -5 3 C-4.34 3 -3.68 3 -3 3 C-3.27714844 4.09699219 -3.55429688 5.19398437 -3.83984375 6.32421875 C-4.20579237 7.77862993 -4.57167427 9.2330579 -4.9375 10.6875 C-5.11990234 11.40873047 -5.30230469 12.12996094 -5.49023438 12.87304688 C-6.41825907 16.56827248 -7.29798461 20.25345469 -8 24 C-6.03905665 23.78269092 -6.03905665 23.78269092 -4 23 C0.16269731 16.52290728 -0.30497453 7.39300327 0 0 Z " fill="#1A1218" transform="translate(11,9)"/>
<path d="M0 0 C0.66 0 1.32 0 2 0 C2.48550351 9.23805298 1.86732429 16.54022812 -2 25 C-3.32 24.67 -4.64 24.34 -6 24 C-5.3547144 19.20644984 -4.55143609 14.48459557 -3.5625 9.75 C-3.31628906 8.54859375 -3.07007813 7.3471875 -2.81640625 6.109375 C-2 3 -2 3 0 0 Z " fill="#DA9DCD" transform="translate(9,9)"/>
<path d="M0 0 C0.66 0 1.32 0 2 0 C8.32185629 18.68937126 8.32185629 18.68937126 8 24 C6.68 24.33 5.36 24.66 4 25 C0.13267571 16.54022812 -0.48550351 9.23805298 0 0 Z " fill="#D99BCB" transform="translate(36,9)"/>
<path d="M0 0 C1.8125 0.5 1.8125 0.5 4 2 C6.2501154 7.45427972 8.04471488 13.04189631 9.75 18.6875 C9.98332031 19.42033203 10.21664062 20.15316406 10.45703125 20.90820312 C11.67795365 24.96210416 12.34909661 27.82931719 11 32 C8.525 32.495 8.525 32.495 6 33 C6 31.35 6 29.7 6 28 C6.99 28 7.98 28 9 28 C8.07720945 24.4127133 7.1342361 20.8310349 6.1875 17.25 C5.92646484 16.23421875 5.66542969 15.2184375 5.39648438 14.171875 C5.13544922 13.1921875 4.87441406 12.2125 4.60546875 11.203125 C4.36981201 10.30239258 4.13415527 9.40166016 3.89135742 8.47363281 C2.95421463 5.87293965 1.68484211 4.16651945 0 2 C0 1.34 0 0.68 0 0 Z " fill="#4B2D42" transform="translate(35,5)"/>
<path d="M0 0 C2.91886134 0.48183114 4.06898973 0.90479941 6.11328125 2.97265625 C6.69078125 3.79765625 7.26828125 4.62265625 7.86328125 5.47265625 C6.54328125 5.80265625 5.22328125 6.13265625 3.86328125 6.47265625 C3.86328125 5.81265625 3.86328125 5.15265625 3.86328125 4.47265625 C3.20328125 4.47265625 2.54328125 4.47265625 1.86328125 4.47265625 C1.53328125 3.81265625 1.20328125 3.15265625 0.86328125 2.47265625 C-2.51135899 2.22229855 -2.51135899 2.22229855 -6.13671875 2.47265625 C-7.66410126 3.82786879 -7.66410126 3.82786879 -9.13671875 5.47265625 C-10.46674953 6.38392486 -11.82242363 7.25871193 -13.19921875 8.09765625 C-13.89144531 8.52304688 -14.58367188 8.9484375 -15.296875 9.38671875 C-16.55128416 10.12711311 -17.83388303 10.82123839 -19.13671875 11.47265625 C-18.94921875 9.66015625 -18.94921875 9.66015625 -18.13671875 7.47265625 C-16.50607111 6.41493886 -14.83391002 5.41992579 -13.13671875 4.47265625 C-12.54375 3.79332031 -11.95078125 3.11398438 -11.33984375 2.4140625 C-7.81280351 -0.69398537 -4.51681908 -0.12684596 0 0 Z " fill="#070406" transform="translate(26.13671875,-0.47265625)"/>
<path d="M0 0 C1.8125 0.5 1.8125 0.5 4 2 C6.69221232 7.79861115 7.90696147 13.72467291 9 20 C7 19 7 19 5.78125 15.76171875 C5.34668076 14.40602269 4.91992524 13.04780328 4.5 11.6875 C2.6469627 5.68454147 2.6469627 5.68454147 0 0 Z " fill="#090608" transform="translate(35,5)"/>
<path d="M0 0 C0.66 0 1.32 0 2 0 C2.309375 0.8971875 2.309375 0.8971875 2.625 1.8125 C4.60468364 4.9619967 6.53107742 5.71521386 10 7 C12.72423367 7.23028594 15.25726355 7.14186568 18 7 C18 7.66 18 8.32 18 9 C7.43436237 9.8597716 7.43436237 9.8597716 2.8125 6.75 C1.884375 5.8425 0.95625 4.935 0 4 C0 2.68 0 1.36 0 0 Z " fill="#0A0609" transform="translate(11,38)"/>
<path d="M0 0 C0.66 0 1.32 0 2 0 C1.3808361 2.584859 0.75492318 5.16776172 0.125 7.75 C-0.04902344 8.47960938 -0.22304687 9.20921875 -0.40234375 9.9609375 C-1.27908598 13.53285028 -2.12686823 16.79373841 -4 20 C-5.08062462 16.75812614 -4.96405231 16.10290139 -4.00390625 12.98828125 C-3.77509766 12.23095703 -3.54628906 11.47363281 -3.31054688 10.69335938 C-3.06369141 9.90767578 -2.81683594 9.12199219 -2.5625 8.3125 C-2.19801758 7.11657227 -2.19801758 7.11657227 -1.82617188 5.89648438 C-1.22520262 3.92860466 -0.6136095 1.96397505 0 0 Z " fill="#0A0709" transform="translate(6,12)"/>
<path d="M0 0 C2.31 0 4.62 0 7 0 C7.33 0.99 7.66 1.98 8 3 C5.75 4.125 5.75 4.125 3 5 C0.6875 4.125 0.6875 4.125 -1 3 C-0.67 2.01 -0.34 1.02 0 0 Z " fill="#B76FA0" transform="translate(20,1)"/>
<path d="M0 0 C0.33 0 0.66 0 1 0 C1.63810914 4.01819218 2.13522773 7.92694082 2 12 C-0.25 14.8125 -0.25 14.8125 -3 16 C-3.99 15.67 -4.98 15.34 -6 15 C-5.195625 14.566875 -4.39125 14.13375 -3.5625 13.6875 C0.28203946 9.65542203 -0.10219867 5.38865731 0 0 Z " fill="#130C10" transform="translate(34,30)"/>
<path d="M0 0 C0.33 0.66 0.66 1.32 1 2 C1.99 2 2.98 2 4 2 C4 3.65 4 5.3 4 7 C2.35 6.67 0.7 6.34 -1 6 C-1.625 4.125 -1.625 4.125 -2 2 C-1.34 1.34 -0.68 0.68 0 0 Z " fill="#704362" transform="translate(2,31)"/>
<path d="M0 0 C0 0.99 0 1.98 0 3 C-3 5.1875 -3 5.1875 -6 7 C-5.8125 5.1875 -5.8125 5.1875 -5 3 C-2.4375 1.25 -2.4375 1.25 0 0 Z " fill="#120D11" transform="translate(13,4)"/>
<path d="M0 0 C2.97 1.98 2.97 1.98 6 4 C5.67 4.66 5.34 5.32 5 6 C4.01 6 3.02 6 2 6 C2 5.34 2 4.68 2 4 C1.34 4 0.68 4 0 4 C0 2.68 0 1.36 0 0 Z " fill="#0E090D" transform="translate(28,0)"/>
</svg>
