<?xml version="1.0" encoding="UTF-8"?>
<svg version="1.1" xmlns="http://www.w3.org/2000/svg" width="47" height="47">
<path d="M0 0 C1.21042969 -0.00128906 2.42085937 -0.00257812 3.66796875 -0.00390625 C4.94285156 -0.00003906 6.21773437 0.00382812 7.53125 0.0078125 C9.44357422 0.00201172 9.44357422 0.00201172 11.39453125 -0.00390625 C13.21017578 -0.00197266 13.21017578 -0.00197266 15.0625 0 C16.18205078 0.00112793 17.30160156 0.00225586 18.45507812 0.00341797 C21.03125 0.1328125 21.03125 0.1328125 22.03125 1.1328125 C23.91643692 16.28412956 23.12053098 31.89552555 23.03125 47.1328125 C18.74125 47.1328125 14.45125 47.1328125 10.03125 47.1328125 C9.37125 42.5128125 8.71125 37.8928125 8.03125 33.1328125 C7.70125 33.1328125 7.37125 33.1328125 7.03125 33.1328125 C6.37125 37.7528125 5.71125 42.3728125 5.03125 47.1328125 C0.74125 47.1328125 -3.54875 47.1328125 -7.96875 47.1328125 C-7.99383072 42.67114611 -8.01178627 38.20951919 -8.02368164 33.74780273 C-8.02865073 32.2360767 -8.03542832 30.7243553 -8.04418945 29.21264648 C-8.15301411 9.92507635 -8.15301411 9.92507635 -6.96875 1.1328125 C-5.16595809 -0.66997941 -2.42827299 0.00244645 0 0 Z " fill="#90B1DA" transform="translate(15.96875,-0.1328125)"/>
<path d="M0 0 C1.21042969 -0.00128906 2.42085937 -0.00257812 3.66796875 -0.00390625 C4.94285156 -0.00003906 6.21773437 0.00382812 7.53125 0.0078125 C9.44357422 0.00201172 9.44357422 0.00201172 11.39453125 -0.00390625 C13.21017578 -0.00197266 13.21017578 -0.00197266 15.0625 0 C16.18205078 0.00112793 17.30160156 0.00225586 18.45507812 0.00341797 C21.03125 0.1328125 21.03125 0.1328125 22.03125 1.1328125 C22.26652773 3.48268512 22.44511417 5.83837289 22.59375 8.1953125 C22.71943359 10.13083984 22.71943359 10.13083984 22.84765625 12.10546875 C22.90824219 13.10449219 22.96882813 14.10351562 23.03125 15.1328125 C22.37125 15.1328125 21.71125 15.1328125 21.03125 15.1328125 C20.98226562 14.42253906 20.93328125 13.71226563 20.8828125 12.98046875 C20.80804688 12.06136719 20.73328125 11.14226563 20.65625 10.1953125 C20.58664063 9.27878906 20.51703125 8.36226562 20.4453125 7.41796875 C20.30867188 6.66386719 20.17203125 5.90976563 20.03125 5.1328125 C19.37125 4.8028125 18.71125 4.4728125 18.03125 4.1328125 C18.69125 4.1328125 19.35125 4.1328125 20.03125 4.1328125 C20.03125 3.1428125 20.03125 2.1528125 20.03125 1.1328125 C18.71125 1.1328125 17.39125 1.1328125 16.03125 1.1328125 C15.70125 1.7928125 15.37125 2.4528125 15.03125 3.1328125 C14.04125 2.8028125 13.05125 2.4728125 12.03125 2.1328125 C11.70125 3.1228125 11.37125 4.1128125 11.03125 5.1328125 C10.70125 4.1428125 10.37125 3.1528125 10.03125 2.1328125 C8.38125 2.1328125 6.73125 2.1328125 5.03125 2.1328125 C5.03125 3.4528125 5.03125 4.7728125 5.03125 6.1328125 C4.37125 6.1328125 3.71125 6.1328125 3.03125 6.1328125 C3.03125 4.8128125 3.03125 3.4928125 3.03125 2.1328125 C1.71125 2.4628125 0.39125 2.7928125 -0.96875 3.1328125 C-0.96875 2.4728125 -0.96875 1.8128125 -0.96875 1.1328125 C-2.28875 1.1328125 -3.60875 1.1328125 -4.96875 1.1328125 C-4.96875 2.1228125 -4.96875 3.1128125 -4.96875 4.1328125 C-4.30875 4.4628125 -3.64875 4.7928125 -2.96875 5.1328125 C-3.62875 5.1328125 -4.28875 5.1328125 -4.96875 5.1328125 C-4.96875 6.7828125 -4.96875 8.4328125 -4.96875 10.1328125 C-4.35 9.4728125 -3.73125 8.8128125 -3.09375 8.1328125 C-0.96875 6.1328125 -0.96875 6.1328125 1.03125 6.1328125 C0.90625 8.0078125 0.90625 8.0078125 0.03125 10.1328125 C-1.94875 10.7928125 -3.92875 11.4528125 -5.96875 12.1328125 C-5.96875 23.0228125 -5.96875 33.9128125 -5.96875 45.1328125 C-3.98875 44.6378125 -3.98875 44.6378125 -1.96875 44.1328125 C-1.96875 43.4728125 -1.96875 42.8128125 -1.96875 42.1328125 C-0.31875 42.1328125 1.33125 42.1328125 3.03125 42.1328125 C4.02125 34.5428125 5.01125 26.9528125 6.03125 19.1328125 C7.02125 19.1328125 8.01125 19.1328125 9.03125 19.1328125 C10.39390992 26.89510739 11.26659972 34.24859686 11.03125 42.1328125 C14.33125 42.1328125 17.63125 42.1328125 21.03125 42.1328125 C21.03125 33.8828125 21.03125 25.6328125 21.03125 17.1328125 C21.69125 17.1328125 22.35125 17.1328125 23.03125 17.1328125 C23.03125 27.0328125 23.03125 36.9328125 23.03125 47.1328125 C18.74125 47.1328125 14.45125 47.1328125 10.03125 47.1328125 C9.37125 42.5128125 8.71125 37.8928125 8.03125 33.1328125 C7.70125 33.1328125 7.37125 33.1328125 7.03125 33.1328125 C6.37125 37.7528125 5.71125 42.3728125 5.03125 47.1328125 C0.74125 47.1328125 -3.54875 47.1328125 -7.96875 47.1328125 C-7.99383072 42.67114611 -8.01178627 38.20951919 -8.02368164 33.74780273 C-8.02865073 32.2360767 -8.03542832 30.7243553 -8.04418945 29.21264648 C-8.15301411 9.92507635 -8.15301411 9.92507635 -6.96875 1.1328125 C-5.16595809 -0.66997941 -2.42827299 0.00244645 0 0 Z " fill="#0B0F13" transform="translate(15.96875,-0.1328125)"/>
<path d="M0 0 C0.66 0 1.32 0 2 0 C2 9.9 2 19.8 2 30 C-2.29 30 -6.58 30 -11 30 C-11.36478928 27.29272088 -11.71709438 24.58476283 -12.0625 21.875 C-12.16626953 21.11445312 -12.27003906 20.35390625 -12.37695312 19.5703125 C-12.93099161 15.13800459 -13.00817782 11.41342179 -12 7 C-11.67 7 -11.34 7 -11 7 C-10.10101383 13.06815666 -9.91477831 18.86403867 -10 25 C-6.7 25 -3.4 25 0 25 C0 16.75 0 8.5 0 0 Z " fill="#131C24" transform="translate(37,17)"/>
<path d="M0 0 C2.63312492 -0.07523214 4.92160446 -0.017639 7.5 0.5625 C10.42233052 1.22945199 10.42233052 1.22945199 15 0 C15.495 6.93 15.495 6.93 16 14 C14.68 12.68 13.36 11.36 12 10 C11.4225 9.46375 10.845 8.9275 10.25 8.375 C9 7 9 7 9 5 C8.01 5 7.02 5 6 5 C6.0825 5.928125 6.165 6.85625 6.25 7.8125 C6 11 6 11 4 12.875 C3.01 13.431875 3.01 13.431875 2 14 C2 11.36 2 8.72 2 6 C1.01 5.67 0.02 5.34 -1 5 C-0.67 3.35 -0.34 1.7 0 0 Z " fill="#242F3B" transform="translate(21,1)"/>
<path d="M0 0 C0.99 0.495 0.99 0.495 2 1 C2 1.99 2 2.98 2 4 C2.66 4 3.32 4 4 4 C3.67 12.91 3.34 21.82 3 31 C2.01 31 1.02 31 0 31 C0 20.77 0 10.54 0 0 Z " fill="#6E9AC7" transform="translate(34,11)"/>
<path d="M0 0 C3.64581687 -0.02887512 7.29160463 -0.04675585 10.9375 -0.0625 C12.49887695 -0.07506836 12.49887695 -0.07506836 14.09179688 -0.08789062 C15.57583008 -0.09272461 15.57583008 -0.09272461 17.08984375 -0.09765625 C18.46450806 -0.10551147 18.46450806 -0.10551147 19.86694336 -0.11352539 C22 0 22 0 23 1 C23.23527773 3.34987262 23.41386417 5.70556039 23.5625 8.0625 C23.68818359 9.99802734 23.68818359 9.99802734 23.81640625 11.97265625 C23.87699219 12.97167969 23.93757813 13.97070312 24 15 C23.34 15 22.68 15 22 15 C21.95101562 14.28972656 21.90203125 13.57945313 21.8515625 12.84765625 C21.77679688 11.92855469 21.70203125 11.00945313 21.625 10.0625 C21.55539063 9.14597656 21.48578125 8.22945312 21.4140625 7.28515625 C21.27742188 6.53105469 21.14078125 5.77695313 21 5 C20.34 4.67 19.68 4.34 19 4 C19.66 4 20.32 4 21 4 C21 3.01 21 2.02 21 1 C19.68 1 18.36 1 17 1 C16.67 1.66 16.34 2.32 16 3 C15.01 2.67 14.02 2.34 13 2 C12.67 2.99 12.34 3.98 12 5 C11.67 4.01 11.34 3.02 11 2 C9.35 2 7.7 2 6 2 C6 3.32 6 4.64 6 6 C5.34 6 4.68 6 4 6 C4 4.68 4 3.36 4 2 C2.68 2.33 1.36 2.66 0 3 C0 2.01 0 1.02 0 0 Z " fill="#020202" transform="translate(15,0)"/>
<path d="M0 0 C2.64 0.33 5.28 0.66 8 1 C8 2.32 8 3.64 8 5 C6.68 5 5.36 5 4 5 C3.34 6.32 2.68 7.64 2 9 C1.34 9 0.68 9 0 9 C0 6.03 0 3.06 0 0 Z " fill="#787379" transform="translate(11,1)"/>
<path d="M0 0 C1.55420014 3.10840028 0.60417518 6.17066597 0.125 9.5 C-0.01228516 10.53447266 -0.01228516 10.53447266 -0.15234375 11.58984375 C-0.86327072 16.72654144 -0.86327072 16.72654144 -2 19 C-2.66 19 -3.32 19 -4 19 C-3.85904936 17.3745692 -3.71207913 15.74965949 -3.5625 14.125 C-3.48128906 13.22007813 -3.40007813 12.31515625 -3.31640625 11.3828125 C-3 9 -3 9 -2 7 C-2.020625 6.175 -2.04125 5.35 -2.0625 4.5 C-2 2 -2 2 0 0 Z " fill="#729ECC" transform="translate(21,23)"/>
<path d="M0 0 C0 2.97 0 5.94 0 9 C-1.32 8.34 -2.64 7.68 -4 7 C-4 6.01 -4 5.02 -4 4 C-5.32 4 -6.64 4 -8 4 C-8 3.01 -8 2.02 -8 1 C-5.10765685 0.17361624 -3.11257569 0 0 0 Z " fill="#7A747C" transform="translate(36,1)"/>
<path d="M0 0 C1.65 0 3.3 0 5 0 C5.33 1.32 5.66 2.64 6 4 C3.69 4 1.38 4 -1 4 C-0.67 2.68 -0.34 1.36 0 0 Z " fill="#C6C6C8" transform="translate(21,1)"/>
<path d="M0 0 C3.96 0 7.92 0 12 0 C11.67 0.66 11.34 1.32 11 2 C9.35 2 7.7 2 6 2 C6 3.32 6 4.64 6 6 C5.34 6 4.68 6 4 6 C4 4.68 4 3.36 4 2 C2.68 2.33 1.36 2.66 0 3 C0 2.01 0 1.02 0 0 Z " fill="#0A0908" transform="translate(15,0)"/>
<path d="M0 0 C0.33 0 0.66 0 1 0 C1.33 4.29 1.66 8.58 2 13 C1.34 13 0.68 13 0 13 C-0.83796731 8.34462607 -1.0161692 4.62921525 0 0 Z " fill="#1D242C" transform="translate(25,24)"/>
</svg>
