<?xml version="1.0" encoding="UTF-8"?>
<svg version="1.1" xmlns="http://www.w3.org/2000/svg" width="47" height="47">
<path d="M0 0 C2.8984375 -0.43359375 2.8984375 -0.43359375 6.375 -0.4375 C8.08816406 -0.46650391 8.08816406 -0.46650391 9.8359375 -0.49609375 C13.59910631 0.09393395 14.58878515 1.1518536 17 4 C18.2684375 4.7115625 18.2684375 4.7115625 19.5625 5.4375 C25.37445704 9.16311349 26.21710039 15.88388353 27.6875 22.1875 C27.91244141 23.08275391 28.13738281 23.97800781 28.36914062 24.90039062 C29.82405002 31.02516118 30.28275629 36.71397952 30 43 C27.525 43.495 27.525 43.495 25 44 C23.68 42.35 22.36 40.7 21 39 C20.33484375 40.46179687 20.33484375 40.46179687 19.65625 41.953125 C18.16083017 44.18835641 17.39667568 44.89493642 14.765625 45.59179688 C11.98896957 45.81002204 9.28416035 45.81799849 6.5 45.75 C5.54996094 45.77320313 4.59992187 45.79640625 3.62109375 45.8203125 C-3.14988273 45.76317346 -3.14988273 45.76317346 -5.546875 43.61132812 C-6.65625 41.953125 -6.65625 41.953125 -8 39 C-8.33 39.66 -8.66 40.32 -9 41 C-9.66 41 -10.32 41 -11 41 C-11.33 41.99 -11.66 42.98 -12 44 C-13.65 43.67 -15.3 43.34 -17 43 C-17.39929812 36.31545364 -16.63995668 30.54237929 -14.84375 24.09765625 C-14.2720292 21.99869979 -13.77383196 19.87858347 -13.34375 17.74609375 C-11.50455822 8.8238241 -11.50455822 8.8238241 -8 5.8125 C-5 4 -5 4 -2 3 C-1.34 2.01 -0.68 1.02 0 0 Z " fill="#130F0F" transform="translate(17,1)"/>
<path d="M0 0 C2.52746606 1.60838749 4.18769521 2.94508808 6.0625 5.3125 C6.41209406 7.99422476 6.53173774 10.25187958 6.453125 12.921875 C6.44746521 13.64868469 6.44180542 14.37549438 6.43597412 15.12432861 C6.41364553 17.43773245 6.36346048 19.7495672 6.3125 22.0625 C6.29243023 23.63409216 6.27418029 25.20570868 6.2578125 26.77734375 C6.21379293 30.62299717 6.14479375 34.46748289 6.0625 38.3125 C3.0925 38.3125 0.1225 38.3125 -2.9375 38.3125 C-5.64811101 32.89127799 -5.54362767 28.35187576 -5.9375 22.3125 C-7.2575 25.9425 -8.5775 29.5725 -9.9375 33.3125 C-11.5875 32.9825 -13.2375 32.6525 -14.9375 32.3125 C-15.11129955 27.18541333 -14.90439304 24.06868039 -12.9375 19.3125 C-12.22140505 16.75347391 -11.5315776 14.19888405 -10.875 11.625 C-9.06543542 4.56837084 -9.06543542 4.56837084 -7.9375 2.3125 C-7.2775 2.3125 -6.6175 2.3125 -5.9375 2.3125 C-5.6075 1.6525 -5.2775 0.9925 -4.9375 0.3125 C-1.9375 -0.6875 -1.9375 -0.6875 0 0 Z " fill="#F4536F" transform="translate(16.9375,6.6875)"/>
<path d="M0 0 C0 9.24 0 18.48 0 28 C-0.99 27.01 -1.98 26.02 -3 25 C-2.65213292 26.97536745 -2.65213292 26.97536745 -2 29 C-1.34 29.33 -0.68 29.66 0 30 C-0.33 32.64 -0.66 35.28 -1 38 C-3.97 38 -6.94 38 -10 38 C-10.14894186 33.41029919 -10.25748633 28.82202078 -10.32958984 24.23046875 C-10.359661 22.67064903 -10.400531 21.110997 -10.45263672 19.55175781 C-10.92941351 4.91190589 -10.92941351 4.91190589 -7.2265625 0.8828125 C-4 -1 -4 -1 0 0 Z " fill="#FB5673" transform="translate(34,7)"/>
<path d="M0 0 C0.33 0.66 0.66 1.32 1 2 C1.66 2.33 2.32 2.66 3 3 C2.67 3.33 2.34 3.66 2 4 C1.84019563 6.44608998 1.74070553 8.86731058 1.68359375 11.31640625 C1.66281265 12.04746078 1.64203156 12.77851532 1.62062073 13.53172302 C1.55504976 15.87521656 1.49620568 18.21882539 1.4375 20.5625 C1.39432192 22.14779855 1.35070787 23.73308529 1.30664062 25.31835938 C1.1993608 29.21212037 1.0981151 33.10599772 1 37 C3.97 37 6.94 37 10 37 C10.97108652 33.11565393 11.21884695 29.57488562 11.31640625 25.609375 C11.33718735 24.90476135 11.35796844 24.20014771 11.37937927 23.47418213 C11.44453837 21.23288319 11.50360248 18.99147136 11.5625 16.75 C11.60571726 15.22655103 11.64933257 13.70311329 11.69335938 12.1796875 C11.80018491 8.45324409 11.90154639 4.72667506 12 1 C12.33 1 12.66 1 13 1 C13.01458252 1.55349121 13.02916504 2.10698242 13.04418945 2.67724609 C13.26626752 17.14025876 13.26626752 17.14025876 17 31 C18.65 31 20.3 31 22 31 C21.01 25.72 20.02 20.44 19 15 C19.66 15 20.32 15 21 15 C23.28612778 22.15775723 24.44032071 28.48193151 24 36 C21.525 36.495 21.525 36.495 19 37 C17.68 35.35 16.36 33.7 15 32 C14.33484375 33.46179687 14.33484375 33.46179687 13.65625 34.953125 C12.16083017 37.18835641 11.39667568 37.89493642 8.765625 38.59179688 C5.98896957 38.81002204 3.28416035 38.81799849 0.5 38.75 C-0.45003906 38.77320313 -1.40007813 38.79640625 -2.37890625 38.8203125 C-9.14988273 38.76317346 -9.14988273 38.76317346 -11.546875 36.61132812 C-12.65625 34.953125 -12.65625 34.953125 -14 32 C-14.33 32.66 -14.66 33.32 -15 34 C-15.66 34 -16.32 34 -17 34 C-17.33 34.99 -17.66 35.98 -18 37 C-19.65 36.67 -21.3 36.34 -23 36 C-23.05395478 34.37536158 -23.09277195 32.75021459 -23.125 31.125 C-23.15980469 29.76761719 -23.15980469 29.76761719 -23.1953125 28.3828125 C-23 26 -23 26 -21 24 C-21 26.31 -21 28.62 -21 31 C-19.35 31.33 -17.7 31.66 -16 32 C-15.87625 31.113125 -15.7525 30.22625 -15.625 29.3125 C-15 26 -15 26 -14 23.75 C-12.76418287 20.35150289 -12.57715496 17.2925967 -12.375 13.6875 C-12.30023438 12.43324219 -12.22546875 11.17898437 -12.1484375 9.88671875 C-12.09945313 8.93410156 -12.05046875 7.98148438 -12 7 C-11.67 7 -11.34 7 -11 7 C-10.97494385 7.76666992 -10.9498877 8.53333984 -10.92407227 9.32324219 C-10.80798577 12.79899283 -10.68531634 16.27448092 -10.5625 19.75 C-10.52318359 20.9565625 -10.48386719 22.163125 -10.44335938 23.40625 C-10.38051758 25.14648438 -10.38051758 25.14648438 -10.31640625 26.921875 C-10.27974854 27.99018555 -10.24309082 29.05849609 -10.20532227 30.15917969 C-10.06559539 33.22486484 -10.06559539 33.22486484 -9 37 C-6.03 37 -3.06 37 0 37 C-0.11811981 32.33673618 -0.24235866 27.6736912 -0.37231445 23.01074219 C-0.41567241 21.42387343 -0.45734687 19.83695776 -0.49731445 18.25 C-0.55499632 15.97121021 -0.61869638 13.69265678 -0.68359375 11.4140625 C-0.70030624 10.70255035 -0.71701874 9.99103821 -0.73423767 9.25796509 C-0.79721937 5.50339183 -0.79721937 5.50339183 -2 2 C-1.34 2 -0.68 2 0 2 C0 1.34 0 0.68 0 0 Z " fill="#040301" transform="translate(23,8)"/>
<path d="M0 0 C0.66 0 1.32 0 2 0 C4.14685132 10.83258567 2.39696844 20.97900216 -2 31 C-3.65 30.67 -5.3 30.34 -7 30 C-7.17379955 24.87291333 -6.96689304 21.75618039 -5 17 C-4.28390505 14.44097391 -3.5940776 11.88638405 -2.9375 9.3125 C-1.12793542 2.25587084 -1.12793542 2.25587084 0 0 Z " fill="#F4C245" transform="translate(9,9)"/>
<path d="M0 0 C0.66 0 1.32 0 2 0 C3.87351592 2.81027388 4.4205796 4.23868658 5.0625 7.4375 C5.65086409 10.31124526 6.27543109 13.15746044 7 16 C9.29822926 25.37744641 9.29822926 25.37744641 9 30 C7.35 30 5.7 30 4 30 C-1.48915868 20.68803438 -0.39389069 10.40780399 0 0 Z " fill="#F6C343" transform="translate(36,9)"/>
<path d="M0 0 C0.33 0 0.66 0 1 0 C1.02187378 0.83023682 1.02187378 0.83023682 1.04418945 1.67724609 C1.26626752 16.14025876 1.26626752 16.14025876 5 30 C6.65 30 8.3 30 10 30 C9.01 24.72 8.02 19.44 7 14 C7.66 14 8.32 14 9 14 C11.28612778 21.15775723 12.44032071 27.48193151 12 35 C9.525 35.495 9.525 35.495 7 36 C5.68 34.35 4.36 32.7 3 31 C2.01 31.33 1.02 31.66 0 32 C0 21.44 0 10.88 0 0 Z " fill="#060502" transform="translate(35,9)"/>
<path d="M0 0 C0.33 0.99 0.66 1.98 1 3 C1.66 3 2.32 3 3 3 C3 3.99 3 4.98 3 6 C2.34 6 1.68 6 1 6 C1 7.32 1 8.64 1 10 C1.66 10 2.32 10 3 10 C3 10.99 3 11.98 3 13 C2.34 13 1.68 13 1 13 C1 14.32 1 15.64 1 17 C1.66 17 2.32 17 3 17 C3 17.66 3 18.32 3 19 C2.34 19 1.68 19 1 19 C1 20.32 1 21.64 1 23 C1.66 23 2.32 23 3 23 C3 23.99 3 24.98 3 26 C2.34 26 1.68 26 1 26 C1 26.99 1 27.98 1 29 C3.97 29 6.94 29 10 29 C9.67 30.32 9.34 31.64 9 33 C6.03 33 3.06 33 0 33 C0 22.11 0 11.22 0 0 Z " fill="#B43E53" transform="translate(24,12)"/>
<path d="M0 0 C0.33 0.66 0.66 1.32 1 2 C1.66 2.33 2.32 2.66 3 3 C2.67 3.33 2.34 3.66 2 4 C1.84019563 6.44608998 1.74070553 8.86731058 1.68359375 11.31640625 C1.66281265 12.04746078 1.64203156 12.77851532 1.62062073 13.53172302 C1.55504976 15.87521656 1.49620568 18.21882539 1.4375 20.5625 C1.39432192 22.14779855 1.35070787 23.73308529 1.30664062 25.31835938 C1.1993608 29.21212037 1.0981151 33.10599772 1 37 C3.97 37 6.94 37 10 37 C10.66 35.68 11.32 34.36 12 33 C12.33 33.66 12.66 34.32 13 35 C12.34 35.99 11.68 36.98 11 38 C9.02880859 38.34057617 9.02880859 38.34057617 6.6484375 38.29296875 C5.79765625 38.28330078 4.946875 38.27363281 4.0703125 38.26367188 C3.18085938 38.23853516 2.29140625 38.21339844 1.375 38.1875 C0.4778125 38.17396484 -0.419375 38.16042969 -1.34375 38.14648438 C-3.56309789 38.11106925 -5.78125188 38.06168461 -8 38 C-8 37.67 -8 37.34 -8 37 C-5.36 37 -2.72 37 0 37 C-0.11811981 32.33673618 -0.24235866 27.6736912 -0.37231445 23.01074219 C-0.41567241 21.42387343 -0.45734687 19.83695776 -0.49731445 18.25 C-0.55499632 15.97121021 -0.61869638 13.69265678 -0.68359375 11.4140625 C-0.70030624 10.70255035 -0.71701874 9.99103821 -0.73423767 9.25796509 C-0.79721937 5.50339183 -0.79721937 5.50339183 -2 2 C-1.34 2 -0.68 2 0 2 C0 1.34 0 0.68 0 0 Z " fill="#010000" transform="translate(23,8)"/>
<path d="M0 0 C1 2 1 2 0.29296875 4.50390625 C-0.07183594 5.51324219 -0.43664062 6.52257812 -0.8125 7.5625 C-2.59776236 12.68354669 -3.93715116 17.6857558 -5 23 C-5.99 23 -6.98 23 -8 23 C-7.2466139 19.72489426 -6.46932309 16.45592376 -5.6875 13.1875 C-5.47416016 12.25873047 -5.26082031 11.32996094 -5.04101562 10.37304688 C-4.82509766 9.48037109 -4.60917969 8.58769531 -4.38671875 7.66796875 C-4.19295654 6.84578857 -3.99919434 6.0236084 -3.79956055 5.17651367 C-2.92319875 2.79093645 -1.91395681 1.63623636 0 0 Z " fill="#161206" transform="translate(9,7)"/>
<path d="M0 0 C0.66 0 1.32 0 2 0 C4.20300447 6.770816 5.4587535 11.97146041 4 19 C2.68 19.33 1.36 19.66 0 20 C0 19.34 0 18.68 0 18 C-0.66 17.34 -1.32 16.68 -2 16 C-0.35 16 1.3 16 3 16 C2.01 10.72 1.02 5.44 0 0 Z " fill="#120D02" transform="translate(42,23)"/>
<path d="M0 0 C2.64 0 5.28 0 8 0 C8 0.66 8 1.32 8 2 C8.66 2 9.32 2 10 2 C8.25 5.875 8.25 5.875 6 7 C6 6.01 6 5.02 6 4 C2.88214887 4.64644661 2.88214887 4.64644661 2 7 C0.4375 5.75 0.4375 5.75 -1 4 C-0.6875 1.8125 -0.6875 1.8125 0 0 Z " fill="#A4805C" transform="translate(19,2)"/>
<path d="M0 0 C0.33 0 0.66 0 1 0 C1 11.22 1 22.44 1 34 C0.67 32.68 0.34 31.36 0 30 C-0.99 29.67 -1.98 29.34 -3 29 C-3.33 27.02 -3.66 25.04 -4 23 C-3.01 24.32 -2.02 25.64 -1 27 C-0.67 18.09 -0.34 9.18 0 0 Z " fill="#822935" transform="translate(34,7)"/>
<path d="M0 0 C0.33 0 0.66 0 1 0 C1.33 6.27 1.66 12.54 2 19 C2.99 17.68 3.98 16.36 5 15 C4.67 16.98 4.34 18.96 4 21 C3.01 21.33 2.02 21.66 1 22 C0.67 23.32 0.34 24.64 0 26 C0 17.42 0 8.84 0 0 Z " fill="#8A2F3F" transform="translate(12,15)"/>
<path d="M0 0 C3.3 0 6.6 0 10 0 C9.67 1.32 9.34 2.64 9 4 C6.03 4 3.06 4 0 4 C0 2.68 0 1.36 0 0 Z " fill="#6B6B71" transform="translate(24,41)"/>
<path d="M0 0 C3.3 0 6.6 0 10 0 C10 1.32 10 2.64 10 4 C7.03 4 4.06 4 1 4 C0.67 2.68 0.34 1.36 0 0 Z " fill="#6C6B71" transform="translate(13,41)"/>
<path d="M0 0 C2.58470302 0.98040459 3.92357065 1.90658635 5.6875 4.0625 C7.44155298 7.98823763 7.73094418 11.74149586 8 16 C7.34 15.67 6.68 15.34 6 15 C5.40234375 13.0390625 5.40234375 13.0390625 4.9375 10.625 C4.41589314 7.97816849 3.85607917 5.5682375 3 3 C2.01 3 1.02 3 0 3 C0 2.01 0 1.02 0 0 Z " fill="#110C02" transform="translate(35,6)"/>
<path d="M0 0 C0.33 0 0.66 0 1 0 C1 2.31 1 4.62 1 7 C1.99 7.33 2.98 7.66 4 8 C4 8.99 4 9.98 4 11 C0.125 10.125 0.125 10.125 -1 9 C-1.23728814 2.47457627 -1.23728814 2.47457627 0 0 Z " fill="#3D3C36" transform="translate(1,32)"/>
<path d="M0 0 C0.66 0.66 1.32 1.32 2 2 C1.34 3.32 0.68 4.64 0 6 C-0.99 6 -1.98 6 -3 6 C-3 5.34 -3 4.68 -3 4 C-3.66 3.34 -4.32 2.68 -5 2 C-3.35 2 -1.7 2 0 2 C0 1.34 0 0.68 0 0 Z " fill="#686353" transform="translate(45,37)"/>
</svg>
