<?xml version="1.0" encoding="UTF-8"?>
<svg version="1.1" xmlns="http://www.w3.org/2000/svg" width="47" height="47">
<path d="M0 0 C10.89 0 21.78 0 33 0 C35.25182102 9.00728408 35.25182102 9.00728408 36.03515625 12.9453125 C36.20466797 13.79480469 36.37417969 14.64429688 36.54882812 15.51953125 C36.71833984 16.37933594 36.88785156 17.23914063 37.0625 18.125 C37.23587891 18.99253906 37.40925781 19.86007813 37.58789062 20.75390625 C38.06733474 23.16765936 38.53415469 25.58359458 39 28 C39.20496094 29.00804688 39.40992188 30.01609375 39.62109375 31.0546875 C40.12940606 35.00589868 40 39.01622651 40 43 C33.07 43 26.14 43 19 43 C18.34 40.03 17.68 37.06 17 34 C16.67 34 16.34 34 16 34 C15.34 36.97 14.68 39.94 14 43 C7.07 43 0.14 43 -7 43 C-7 32.86264308 -7 32.86264308 -6.1953125 28.265625 C-6.02386719 27.27949219 -5.85242188 26.29335938 -5.67578125 25.27734375 C-5.49402344 24.27832031 -5.31226563 23.27929688 -5.125 22.25 C-4.95097656 21.23550781 -4.77695313 20.22101562 -4.59765625 19.17578125 C-3.25965601 11.63342433 -3.25965601 11.63342433 -1.99560547 8.54980469 C-0.70626417 5.50564969 -0.70626417 5.50564969 0 0 Z " fill="#5BDCC0" transform="translate(7,2)"/>
<path d="M0 0 C10.89 0 21.78 0 33 0 C35.25182102 9.00728408 35.25182102 9.00728408 36.03515625 12.9453125 C36.20466797 13.79480469 36.37417969 14.64429688 36.54882812 15.51953125 C36.71833984 16.37933594 36.88785156 17.23914063 37.0625 18.125 C37.23587891 18.99253906 37.40925781 19.86007813 37.58789062 20.75390625 C38.06733474 23.16765936 38.53415469 25.58359458 39 28 C39.20496094 29.00804688 39.40992188 30.01609375 39.62109375 31.0546875 C40.12940606 35.00589868 40 39.01622651 40 43 C33.07 43 26.14 43 19 43 C18.34 40.03 17.68 37.06 17 34 C16.67 34 16.34 34 16 34 C15.34 36.97 14.68 39.94 14 43 C7.07 43 0.14 43 -7 43 C-7 32.86264308 -7 32.86264308 -6.1953125 28.265625 C-6.02386719 27.27949219 -5.85242188 26.29335938 -5.67578125 25.27734375 C-5.49402344 24.27832031 -5.31226563 23.27929688 -5.125 22.25 C-4.95097656 21.23550781 -4.77695313 20.22101562 -4.59765625 19.17578125 C-3.25965601 11.63342433 -3.25965601 11.63342433 -1.99560547 8.54980469 C-0.70626417 5.50564969 -0.70626417 5.50564969 0 0 Z M8 2 C6.00041636 2.04080783 3.99954746 2.04254356 2 2 C2 3.32 2 4.64 2 6 C3.32 6 4.64 6 6 6 C5.42983875 7.27679728 4.84320153 8.54624288 4.25 9.8125 C3.92515625 10.52019531 3.6003125 11.22789063 3.265625 11.95703125 C2 14 2 14 -0.03125 15.23046875 C-3.15213832 18.0355529 -3.17858839 21.47322877 -3.75 25.5 C-3.87503906 26.27214844 -4.00007812 27.04429688 -4.12890625 27.83984375 C-4.61451934 30.91895094 -5 33.87914582 -5 37 C0.94 37 6.88 37 13 37 C13.33 35.39125 13.66 33.7825 14 32.125 C14.185625 31.22007813 14.37125 30.31515625 14.5625 29.3828125 C15.06019595 27.07592097 15.06019595 27.07592097 15 25 C15.99 25 16.98 25 18 25 C18.66 30.28 19.32 35.56 20 41 C25.94 41 31.88 41 38 41 C38.22253727 27.54551012 38.22253727 27.54551012 33.60546875 15.48828125 C32.08054972 14.31212716 30.54064226 13.15548169 29 12 C27.625 8.6875 27.625 8.6875 27 6 C28.32 6 29.64 6 31 6 C31 4.68 31 3.36 31 2 C29.5459375 2.0309375 29.5459375 2.0309375 28.0625 2.0625 C25 2 25 2 24 1 C21.66702567 0.95907063 19.33294775 0.95758277 17 1 C17 2.32 17 3.64 17 5 C17.99 5 18.98 5 20 5 C21.485 11.435 21.485 11.435 23 18 C22.34 18 21.68 18 21 18 C20.67 14.37 20.34 10.74 20 7 C17.69 7 15.38 7 13 7 C12.67 8.65 12.34 10.3 12 12 C12.33 9.69 12.66 7.38 13 5 C13.99 5 14.98 5 16 5 C16 3.68 16 2.36 16 1 C11.67679914 0.49633499 11.67679914 0.49633499 8 2 Z " fill="#0F1D19" transform="translate(7,2)"/>
<path d="M0 0 C0.66 0 1.32 0 2 0 C4.27525665 5.30297913 5.15391743 10.58894829 6.125 16.25 C6.30675781 17.24902344 6.48851562 18.24804688 6.67578125 19.27734375 C6.84722656 20.26347656 7.01867188 21.24960937 7.1953125 22.265625 C7.35016113 23.15024414 7.50500977 24.03486328 7.66455078 24.94628906 C8.10344703 28.94171428 8 32.98054076 8 37 C1.07 37 -5.86 37 -13 37 C-13.66 34.03 -14.32 31.06 -15 28 C-15.33 28 -15.66 28 -16 28 C-16.66 30.97 -17.32 33.94 -18 37 C-24.93 37 -31.86 37 -39 37 C-39 36.67 -39 36.34 -39 36 C-32.73 35.67 -26.46 35.34 -20 35 C-19.5359375 31.596875 -19.5359375 31.596875 -19.0625 28.125 C-18.125 21.25 -18.125 21.25 -17 19 C-16.01 19 -15.02 19 -14 19 C-12.86235649 23.26616316 -12 26.56486311 -12 31 C-10.68 31.33 -9.36 31.66 -8 32 C-9.32 32 -10.64 32 -12 32 C-12 32.99 -12 33.98 -12 35 C-6.06 35 -0.12 35 6 35 C6 34.01 6 33.02 6 32 C2.04 32 -1.92 32 -6 32 C-6 31.67 -6 31.34 -6 31 C-2.04 31 1.92 31 6 31 C5.46235227 27.74407743 4.89627805 24.49768479 4.3125 21.25 C4.08916992 19.86941406 4.08916992 19.86941406 3.86132812 18.4609375 C2.83821811 12.81891065 2.83821811 12.81891065 -0.64453125 8.359375 C-1.42183594 7.91078125 -2.19914062 7.4621875 -3 7 C-2.67 6.34 -2.34 5.68 -2 5 C-1.01 5.99 -0.02 6.98 1 8 C0.505 4.04 0.505 4.04 0 0 Z " fill="#020504" transform="translate(39,8)"/>
<path d="M0 0 C0.33 0 0.66 0 1 0 C1.97259341 4.9602264 1.85559204 7.41256412 0 12 C-0.64934888 14.75212041 -1.13697912 17.52782672 -1.625 20.3125 C-2.07875 22.849375 -2.5325 25.38625 -3 28 C2.94 28 8.88 28 15 28 C14.67 29.65 14.34 31.3 14 33 C7.73 33 1.46 33 -5 33 C-5 23.9930035 -5 23.9930035 -4.16015625 19.2578125 C-3.98419922 18.25492188 -3.80824219 17.25203125 -3.62695312 16.21875 C-3.44068359 15.1978125 -3.25441406 14.176875 -3.0625 13.125 C-2.88009766 12.08085937 -2.69769531 11.03671875 -2.50976562 9.9609375 C-1.14267637 2.28535274 -1.14267637 2.28535274 0 0 Z " fill="#272420" transform="translate(5,11)"/>
<path d="M0 0 C1.65322266 0.01740234 1.65322266 0.01740234 3.33984375 0.03515625 C4.99693359 0.04869141 4.99693359 0.04869141 6.6875 0.0625 C7.54214844 0.07410156 8.39679687 0.08570312 9.27734375 0.09765625 C8.94734375 2.73765625 8.61734375 5.37765625 8.27734375 8.09765625 C4.31734375 8.09765625 0.35734375 8.09765625 -3.72265625 8.09765625 C-3.76507348 5.7647085 -3.76358562 3.43063058 -3.72265625 1.09765625 C-2.72265625 0.09765625 -2.72265625 0.09765625 0 0 Z " fill="#242D21" transform="translate(9.72265625,28.90234375)"/>
<path d="M0 0 C2.64 0 5.28 0 8 0 C8 0.66 8 1.32 8 2 C6.02 2 4.04 2 2 2 C2 3.32 2 4.64 2 6 C3.32 6 4.64 6 6 6 C4.52307692 12.52307692 4.52307692 12.52307692 1.875 14.9375 C1.25625 15.288125 0.6375 15.63875 0 16 C-2.28545662 10.03241883 -1.79172099 6.07806891 0 0 Z " fill="#131819" transform="translate(7,2)"/>
<path d="M0 0 C2.97 0 5.94 0 9 0 C8.979375 1.175625 8.95875 2.35125 8.9375 3.5625 C8.93052739 7.47413467 9.35749657 11.14497944 10 15 C6.73539027 13.19587357 5.11070205 12.16605307 3 9 C3 8.01 3 7.02 3 6 C4.32 6 5.64 6 7 6 C7 4.68 7 3.36 7 2 C5.02 2 3.04 2 1 2 C0.67 3.32 0.34 4.64 0 6 C0 4.02 0 2.04 0 0 Z " fill="#171C1A" transform="translate(31,2)"/>
<path d="M0 0 C2.33294775 -0.04241723 4.66702567 -0.04092937 7 0 C7.33 0.33 7.66 0.66 8 1 C9.99958364 1.04080783 12.00045254 1.04254356 14 1 C14 2.32 14 3.64 14 5 C9.545 5.495 9.545 5.495 5 6 C4.67 6.99 4.34 7.98 4 9 C3.67 7.35 3.34 5.7 3 4 C2.01 4 1.02 4 0 4 C0 2.68 0 1.36 0 0 Z " fill="#808271" transform="translate(24,3)"/>
<path d="M0 0 C0.66 0 1.32 0 2 0 C3.99660999 4.38386107 4.82268576 8.72595058 5.625 13.4375 C5.7590625 14.17548828 5.893125 14.91347656 6.03125 15.67382812 C6.75615546 19.83463754 7.14788809 23.75830063 7 28 C6.34 28 5.68 28 5 28 C4.84144531 26.81921875 4.68289062 25.6384375 4.51953125 24.421875 C4.28497391 22.86441429 4.04923459 21.30713126 3.8125 19.75 C3.71130859 18.97269531 3.61011719 18.19539063 3.50585938 17.39453125 C2.8495476 13.24380276 2.49147606 11.47898713 -0.61328125 8.453125 C-1.40089844 7.97359375 -2.18851563 7.4940625 -3 7 C-2.67 6.34 -2.34 5.68 -2 5 C-1.01 5.99 -0.02 6.98 1 8 C0.67 5.36 0.34 2.72 0 0 Z " fill="#000506" transform="translate(39,8)"/>
<path d="M0 0 C1.134375 0.020625 2.26875 0.04125 3.4375 0.0625 C3.4375 1.3825 3.4375 2.7025 3.4375 4.0625 C2.4475 4.0625 1.4575 4.0625 0.4375 4.0625 C-0.2225 5.3825 -0.8825 6.7025 -1.5625 8.0625 C-1.5625 7.4025 -1.5625 6.7425 -1.5625 6.0625 C-4.5325 5.7325 -7.5025 5.4025 -10.5625 5.0625 C-10.5625 3.7425 -10.5625 2.4225 -10.5625 1.0625 C-9.1084375 1.0934375 -9.1084375 1.0934375 -7.625 1.125 C-3.88736045 1.04872164 -3.92115709 0.06879223 0 0 Z " fill="#828373" transform="translate(19.5625,2.9375)"/>
<path d="M0 0 C0.66 0.33 1.32 0.66 2 1 C2.64315709 3.80274879 3.17122562 6.54122531 3.625 9.375 C3.7590625 10.15617187 3.893125 10.93734375 4.03125 11.7421875 C4.55921829 14.88844752 5 17.80121933 5 21 C1.04 21 -2.92 21 -7 21 C-7 20.67 -7 20.34 -7 20 C-4.03 20 -1.06 20 2 20 C1.855625 19.2265625 1.71125 18.453125 1.5625 17.65625 C0.49595738 11.67176085 -0.23371637 6.07662565 0 0 Z " fill="#1DA893" transform="translate(40,18)"/>
<path d="M0 0 C1.89492188 0.15275391 1.89492188 0.15275391 3.828125 0.30859375 C4.79234375 0.39238281 5.7565625 0.47617187 6.75 0.5625 C6.75 1.5525 6.75 2.5425 6.75 3.5625 C0.81 3.5625 -5.13 3.5625 -11.25 3.5625 C-11.25 2.5725 -11.25 1.5825 -11.25 0.5625 C-7.43483536 -0.73812431 -3.97438237 -0.33119853 0 0 Z " fill="#EADBBE" transform="translate(38.25,39.4375)"/>
<path d="M0 0 C5.94 0 11.88 0 18 0 C18 0.99 18 1.98 18 3 C12.06 3 6.12 3 0 3 C0 2.01 0 1.02 0 0 Z " fill="#E9DAC0" transform="translate(2,40)"/>
<path d="M0 0 C0.33 1.32 0.66 2.64 1 4 C5.29 4 9.58 4 14 4 C14.33 3.01 14.66 2.02 15 1 C15.33 1 15.66 1 16 1 C16 2.65 16 4.3 16 6 C10.06 6 4.12 6 -2 6 C-1 1 -1 1 0 0 Z " fill="#53C9AF" transform="translate(4,33)"/>
<path d="M0 0 C0.66 0 1.32 0 2 0 C2 2.97 2 5.94 2 9 C-4.27 8.67 -10.54 8.34 -17 8 C-17 7.67 -17 7.34 -17 7 C-11.39 7 -5.78 7 0 7 C0 6.01 0 5.02 0 4 C-3.96 4 -7.92 4 -12 4 C-12 3.67 -12 3.34 -12 3 C-8.04 3 -4.08 3 0 3 C0 2.01 0 1.02 0 0 Z " fill="#2B2822" transform="translate(45,36)"/>
<path d="M0 0 C0.33 0 0.66 0 1 0 C1.96923117 4.94307895 1.86121662 7.42672487 0 12 C-0.42943688 14.26117071 -0.80272928 16.53358565 -1.125 18.8125 C-1.29257812 19.97394531 -1.46015625 21.13539062 -1.6328125 22.33203125 C-1.75398437 23.21246094 -1.87515625 24.09289062 -2 25 C-2.66 24.34 -3.32 23.68 -4 23 C-3.8019932 19.93089467 -3.46967732 17.03115825 -3 14 C-2.84015625 12.94683594 -2.6803125 11.89367187 -2.515625 10.80859375 C-1.17063492 2.34126984 -1.17063492 2.34126984 0 0 Z " fill="#030706" transform="translate(5,11)"/>
<path d="M0 0 C2.97 0 5.94 0 9 0 C9 1.32 9 2.64 9 4 C5.7 4 2.4 4 -1 4 C-0.67 2.68 -0.34 1.36 0 0 Z " fill="#B38C4D" transform="translate(8,31)"/>
<path d="M0 0 C3.96 0 7.92 0 12 0 C11.67 0.99 11.34 1.98 11 3 C10.67 2.67 10.34 2.34 10 2 C8.14227838 2.08984301 6.28752015 2.24611861 4.4375 2.4375 C3.42558594 2.53933594 2.41367188 2.64117188 1.37109375 2.74609375 C0.58863281 2.82988281 -0.19382812 2.91367187 -1 3 C-0.67 2.01 -0.34 1.02 0 0 Z " fill="#30402F" transform="translate(7,29)"/>
<path d="M0 0 C1.32 0.33 2.64 0.66 4 1 C4.33 3.31 4.66 5.62 5 8 C2.5 5.6875 2.5 5.6875 0 3 C0 2.01 0 1.02 0 0 Z " fill="#005AAD" transform="translate(36,9)"/>
<path d="M0 0 C0.99 0 1.98 0 3 0 C2.64950425 3.24208567 2.43778819 4.61527704 -0.0625 6.8125 C-0.701875 7.204375 -1.34125 7.59625 -2 8 C-1.125 1.125 -1.125 1.125 0 0 Z " fill="#005AAC" transform="translate(8,9)"/>
<path d="M0 0 C0.99 0 1.98 0 3 0 C3.33 1.98 3.66 3.96 4 6 C2.35 6.33 0.7 6.66 -1 7 C-0.67 4.69 -0.34 2.38 0 0 Z " fill="#0D211D" transform="translate(22,27)"/>
<path d="M0 0 C0.99 0.495 0.99 0.495 2 1 C2.59355614 3.64860427 2.74209269 6.29197322 3 9 C2.01 8.67 1.02 8.34 0 8 C0 5.36 0 2.72 0 0 Z " fill="#0B9E8A" transform="translate(40,18)"/>
<path d="M0 0 C1.98 0 3.96 0 6 0 C6 0.99 6 1.98 6 3 C4.02 3 2.04 3 0 3 C0 2.01 0 1.02 0 0 Z " fill="#FEE8C4" transform="translate(32,4)"/>
<path d="M0 0 C1.98 0 3.96 0 6 0 C6 0.99 6 1.98 6 3 C4.02 3 2.04 3 0 3 C0 2.01 0 1.02 0 0 Z " fill="#FFEFD2" transform="translate(9,4)"/>
</svg>
