<svg width="13" height="13" viewBox="0 0 13 13" fill="none" xmlns="http://www.w3.org/2000/svg">
<g clip-path="url(#clip0_70_26)">
<path d="M6.5 13C2.91579 13 0 10.0842 0 6.5C0 2.91579 2.91579 0 6.5 0C10.0842 0 13 2.91579 13 6.5C13 10.0842 10.0842 13 6.5 13ZM6.5 1.08333C3.51325 1.08333 1.08333 3.51325 1.08333 6.5C1.08333 9.48675 3.51325 11.9167 6.5 11.9167C9.48675 11.9167 11.9167 9.48675 11.9167 6.5C11.9167 3.51325 9.48675 1.08333 6.5 1.08333ZM9.20833 6.5C9.20833 6.20046 8.96621 5.95833 8.66667 5.95833H7.04167V3.25C7.04167 2.95046 6.799 2.70833 6.5 2.70833C6.201 2.70833 5.95833 2.95046 5.95833 3.25V6.5C5.95833 6.79954 6.201 7.04167 6.5 7.04167H8.66667C8.96621 7.04167 9.20833 6.79954 9.20833 6.5Z" fill="black"/>
</g>
<defs>
<clipPath id="clip0_70_26">
<rect width="13" height="13" fill="white"/>
</clipPath>
</defs>
</svg>
