<?xml version="1.0" encoding="UTF-8"?>
<svg version="1.1" xmlns="http://www.w3.org/2000/svg" width="47" height="47">
<path d="M0 0 C6.35990363 3.64504681 10.18591203 10.11069204 12.171875 17.06640625 C11.69140625 19.30859375 11.69140625 19.30859375 10.171875 21.06640625 C8.191875 21.72640625 6.211875 22.38640625 4.171875 23.06640625 C4.171875 30.65640625 4.171875 38.24640625 4.171875 46.06640625 C-5.398125 46.06640625 -14.968125 46.06640625 -24.828125 46.06640625 C-24.828125 38.47640625 -24.828125 30.88640625 -24.828125 23.06640625 C-26.808125 22.40640625 -28.788125 21.74640625 -30.828125 21.06640625 C-31.488125 20.07640625 -32.148125 19.08640625 -32.828125 18.06640625 C-25.84023842 2.37021117 -25.84023842 2.37021117 -21.16796875 -0.2890625 C-14.36340146 -2.16344247 -6.71156945 -2.21555953 0 0 Z " fill="#F7A85D" transform="translate(33.828125,0.93359375)"/>
<path d="M0 0 C6.35990363 3.64504681 10.18591203 10.11069204 12.171875 17.06640625 C11.69140625 19.30859375 11.69140625 19.30859375 10.171875 21.06640625 C8.191875 21.72640625 6.211875 22.38640625 4.171875 23.06640625 C4.171875 30.65640625 4.171875 38.24640625 4.171875 46.06640625 C-5.398125 46.06640625 -14.968125 46.06640625 -24.828125 46.06640625 C-24.828125 38.47640625 -24.828125 30.88640625 -24.828125 23.06640625 C-26.808125 22.40640625 -28.788125 21.74640625 -30.828125 21.06640625 C-31.488125 20.07640625 -32.148125 19.08640625 -32.828125 18.06640625 C-25.84023842 2.37021117 -25.84023842 2.37021117 -21.16796875 -0.2890625 C-14.36340146 -2.16344247 -6.71156945 -2.21555953 0 0 Z M-16.828125 1.06640625 C-17.158125 2.38640625 -17.488125 3.70640625 -17.828125 5.06640625 C-17.828125 4.40640625 -17.828125 3.74640625 -17.828125 3.06640625 C-20.16960731 2.94426731 -20.16960731 2.94426731 -22.828125 4.06640625 C-24.82987648 6.55153522 -26.33926109 9.25062504 -27.828125 12.06640625 C-28.20582031 12.75089844 -28.58351563 13.43539063 -28.97265625 14.140625 C-30.03110823 16.17214358 -30.03110823 16.17214358 -29.828125 19.06640625 C-27.353125 20.05640625 -27.353125 20.05640625 -24.828125 21.06640625 C-24.828125 18.75640625 -24.828125 16.44640625 -24.828125 14.06640625 C-24.168125 14.06640625 -23.508125 14.06640625 -22.828125 14.06640625 C-22.828125 23.96640625 -22.828125 33.86640625 -22.828125 44.06640625 C-14.578125 44.06640625 -6.328125 44.06640625 2.171875 44.06640625 C3.04771292 36.72951535 3.04771292 36.72951535 3.05078125 29.59375 C3.00244141 28.67529297 2.95410156 27.75683594 2.90429688 26.81054688 C2.82018555 25.42125977 2.82018555 25.42125977 2.734375 24.00390625 C2.65606445 22.56241211 2.65606445 22.56241211 2.57617188 21.09179688 C2.44798912 18.74954832 2.31311391 16.4078975 2.171875 14.06640625 C2.831875 14.06640625 3.491875 14.06640625 4.171875 14.06640625 C4.171875 16.37640625 4.171875 18.68640625 4.171875 21.06640625 C5.821875 20.40640625 7.471875 19.74640625 9.171875 19.06640625 C8.58961747 15.41112287 7.60429931 12.60488479 5.796875 9.37890625 C5.16652344 8.22841797 5.16652344 8.22841797 4.5234375 7.0546875 C3.16744581 4.79169543 3.16744581 4.79169543 0.171875 3.06640625 C-2.95038407 2.7237239 -2.95038407 2.7237239 -4.953125 5.06640625 C-5.571875 5.72640625 -6.190625 6.38640625 -6.828125 7.06640625 C-7.158125 7.06640625 -7.488125 7.06640625 -7.828125 7.06640625 C-6.508125 6.07640625 -5.188125 5.08640625 -3.828125 4.06640625 C-4.158125 3.07640625 -4.488125 2.08640625 -4.828125 1.06640625 C-5.385 1.74703125 -5.941875 2.42765625 -6.515625 3.12890625 C-8.828125 5.06640625 -8.828125 5.06640625 -11.390625 5.00390625 C-13.904148 4.03716664 -15.12956378 3.1225593 -16.828125 1.06640625 Z " fill="#40260E" transform="translate(33.828125,0.93359375)"/>
<path d="M0 0 C0.01458252 0.72590332 0.02916504 1.45180664 0.04418945 2.19970703 C0.11894859 5.50865732 0.2155179 8.81662952 0.3125 12.125 C0.33505859 13.26710938 0.35761719 14.40921875 0.38085938 15.5859375 C0.58481054 23.72520196 0.58481054 23.72520196 4 31 C8.28204936 34.86428845 10.94339005 36.10004338 16.625 36.5625 C17.62789062 36.64628906 18.63078125 36.73007812 19.6640625 36.81640625 C20.43492188 36.87699219 21.20578125 36.93757813 22 37 C22 38.32 22 39.64 22 41 C13.75 41 5.5 41 -3 41 C-3 31.1 -3 21.2 -3 11 C-3.66 11 -4.32 11 -5 11 C-5 13.31 -5 15.62 -5 18 C-7.475 17.01 -7.475 17.01 -10 16 C-9.41774247 12.34471662 -8.43242431 9.53847854 -6.625 6.3125 C-6.20476563 5.54550781 -5.78453125 4.77851563 -5.3515625 3.98828125 C-2.64047151 -0 -2.64047151 -0 0 0 Z " fill="#FD9638" transform="translate(14,4)"/>
<path d="M0 0 C0 0.66 0 1.32 0 2 C-6.625 3 -6.625 3 -10 3 C-10 3.99 -10 4.98 -10 6 C-10.66 6 -11.32 6 -12 6 C-12 5.34 -12 4.68 -12 4 C-15.90919223 5.51659138 -17.69553793 6.49694846 -19.8984375 10.13671875 C-20.38570312 11.30847656 -20.87296875 12.48023438 -21.375 13.6875 C-22.12910156 15.45673828 -22.12910156 15.45673828 -22.8984375 17.26171875 C-23.26195312 18.16535156 -23.62546875 19.06898437 -24 20 C-23.195625 20.309375 -22.39125 20.61875 -21.5625 20.9375 C-19 22 -19 22 -18 23 C-17.91286169 24.70772358 -17.89299993 26.41898649 -17.90234375 28.12890625 C-17.90484131 29.06033447 -17.90733887 29.9917627 -17.90991211 30.95141602 C-17.92356812 32.73890259 -17.92356812 32.73890259 -17.9375 34.5625 C-17.9684375 40.2240625 -17.9684375 40.2240625 -18 46 C-9.75 46 -1.5 46 7 46 C7 46.33 7 46.66 7 47 C-1.58 47 -10.16 47 -19 47 C-19 39.41 -19 31.82 -19 24 C-20.98 23.34 -22.96 22.68 -25 22 C-25.66 21.01 -26.32 20.02 -27 19 C-20.11759641 3.54074087 -20.11759641 3.54074087 -15.17578125 0.62109375 C-10.24546461 -0.78630364 -5.06406961 -0.3426814 0 0 Z " fill="#0B0702" transform="translate(28,0)"/>
<path d="M0 0 C4.90553177 0.44595743 8.62828342 2.49577055 12 6 C14.47001933 9.81446024 16.66415712 13.64503239 18 18 C17.15234375 20.37109375 17.15234375 20.37109375 16 22 C15.01 21.67 14.02 21.34 13 21 C13.66 20.67 14.32 20.34 15 20 C13.95698803 17.69755858 12.89242396 15.4100565 11.8125 13.125 C11.37454102 12.14853516 11.37454102 12.14853516 10.92773438 11.15234375 C9.39898876 7.96334752 8.43439924 6.22928348 5.26171875 4.5546875 C4.51535156 4.37164063 3.76898438 4.18859375 3 4 C2.566875 4.9590625 2.566875 4.9590625 2.125 5.9375 C1 8 1 8 -1 9 C-3.3329866 9.04022391 -5.66706666 9.04320247 -8 9 C-8.33 8.34 -8.66 7.68 -9 7 C-7.865625 7.020625 -6.73125 7.04125 -5.5625 7.0625 C-2.18424326 7.41577477 -2.18424326 7.41577477 -1 6 C-2.11375 6.37125 -2.11375 6.37125 -3.25 6.75 C-4.1575 6.8325 -5.065 6.915 -6 7 C-8.3125 5.0625 -8.3125 5.0625 -10 3 C-6.52674819 1.8422494 -3.63932552 1.93133348 0 2 C0 1.34 0 0.68 0 0 Z " fill="#150F08" transform="translate(28,0)"/>
<path d="M0 0 C3.15702316 3.90869534 6 7.8614939 6 13 C4.35 13.66 2.7 14.32 1 15 C0.15318867 9.91913204 -0.09038099 5.15171623 0 0 Z " fill="#F49237" transform="translate(37,7)"/>
<path d="M0 0 C0.33 0 0.66 0 1 0 C0.67 4.62 0.34 9.24 0 14 C-2.475 13.01 -2.475 13.01 -5 12 C-4.42365861 7.24518354 -2.44931479 4.02951788 0 0 Z " fill="#F6820B" transform="translate(9,8)"/>
<path d="M0 0 C1.23556641 0.01740234 1.23556641 0.01740234 2.49609375 0.03515625 C3.32238281 0.04417969 4.14867187 0.05320313 5 0.0625 C5.63808594 0.07410156 6.27617187 0.08570312 6.93359375 0.09765625 C6.93359375 1.08765625 6.93359375 2.07765625 6.93359375 3.09765625 C3.93359375 5.09765625 3.93359375 5.09765625 1.37109375 4.91015625 C-1.06640625 4.09765625 -1.06640625 4.09765625 -3.06640625 1.09765625 C-2.06640625 0.09765625 -2.06640625 0.09765625 0 0 Z " fill="#7A4A0E" transform="translate(21.06640625,1.90234375)"/>
</svg>
