<?xml version="1.0" encoding="UTF-8"?>
<svg version="1.1" xmlns="http://www.w3.org/2000/svg" width="47" height="47">
<path d="M0 0 C15.51 0 31.02 0 47 0 C47.020625 4.434375 47.04125 8.86875 47.0625 13.4375 C47.071604 14.83798584 47.08070801 16.23847168 47.09008789 17.68139648 C47.09258545 18.77524658 47.09508301 19.86909668 47.09765625 20.99609375 C47.10289307 22.12200928 47.10812988 23.2479248 47.11352539 24.40795898 C47 27 47 27 46 28 C39.35786759 28.96073701 32.69848905 29.1098113 26 29 C26 27.02 26 25.04 26 23 C24.35 23 22.7 23 21 23 C21 24.98 21 26.96 21 29 C14.30151095 29.1098113 7.64213241 28.96073701 1 28 C-0 27 -0 27 -0.11352539 24.40795898 C-0.10828857 23.28204346 -0.10305176 22.15612793 -0.09765625 20.99609375 C-0.09515869 19.90224365 -0.09266113 18.80839355 -0.09008789 17.68139648 C-0.08098389 16.28091064 -0.07187988 14.8804248 -0.0625 13.4375 C-0.041875 9.003125 -0.02125 4.56875 0 0 Z " fill="#200C09" transform="translate(0,9)"/>
<path d="M0 0 C14.85 0 29.7 0 45 0 C45 1.65 45 3.3 45 5 C44.67 5.33 44.34 5.66 44 6 C43.91368126 7.34267413 43.89293527 8.68974322 43.90234375 10.03515625 C43.90556641 10.84404297 43.90878906 11.65292969 43.91210938 12.48632812 C43.92048828 13.33646484 43.92886719 14.18660156 43.9375 15.0625 C43.94201172 15.91650391 43.94652344 16.77050781 43.95117188 17.65039062 C43.96299627 19.76695663 43.98093231 21.88348685 44 24 C35.585 24.495 35.585 24.495 27 25 C27 18 27 18 29 6 C19.43 5.67 9.86 5.34 0 5 C0 3.35 0 1.7 0 0 Z " fill="#F3684E" transform="translate(1,11)"/>
<path d="M0 0 C4.62 0 9.24 0 14 0 C17.21428571 13.125 17.21428571 13.125 17 19 C15.02 19.33 13.04 19.66 11 20 C11 19.34 11 18.68 11 18 C7.37 18 3.74 18 0 18 C0 12.06 0 6.12 0 0 Z " fill="#F4684E" transform="translate(2,17)"/>
<path d="M0 0 C14.85 0 29.7 0 45 0 C45 1.65 45 3.3 45 5 C30.15 5 15.3 5 0 5 C0 3.35 0 1.7 0 0 Z " fill="#F7DFBD" transform="translate(1,11)"/>
<path d="M0 0 C15.51 0 31.02 0 47 0 C47.020625 4.434375 47.04125 8.86875 47.0625 13.4375 C47.071604 14.83798584 47.08070801 16.23847168 47.09008789 17.68139648 C47.09258545 18.77524658 47.09508301 19.86909668 47.09765625 20.99609375 C47.10289307 22.12200928 47.10812988 23.2479248 47.11352539 24.40795898 C47 27 47 27 46 28 C44.14227838 27.91015699 42.28752015 27.75388139 40.4375 27.5625 C39.42558594 27.46066406 38.41367187 27.35882813 37.37109375 27.25390625 C36.19740234 27.12822266 36.19740234 27.12822266 35 27 C35 26.67 35 26.34 35 26 C38.3 26 41.6 26 45 26 C45 20.06 45 14.12 45 8 C41.37 8 37.74 8 34 8 C34 7.67 34 7.34 34 7 C37.96 7 41.92 7 46 7 C46 5.35 46 3.7 46 2 C31.15 2 16.3 2 1 2 C1 3.65 1 5.3 1 7 C0.67 7 0.34 7 0 7 C0 4.69 0 2.38 0 0 Z " fill="#161411" transform="translate(0,9)"/>
<path d="M0 0 C3.63 0 7.26 0 11 0 C11.19294408 4.82360189 10.75747614 8.49646738 9 13 C6.69 13 4.38 13 2 13 C0.24252386 8.49646738 -0.19294408 4.82360189 0 0 Z " fill="#D24937" transform="translate(18,17)"/>
<path d="M0 0 C1.32 0 2.64 0 4 0 C4.66 5.94 5.32 11.88 6 18 C4.02 18 2.04 18 0 18 C0 12.06 0 6.12 0 0 Z " fill="#D94B39" transform="translate(2,17)"/>
<path d="M0 0 C1.4540625 0.0309375 1.4540625 0.0309375 2.9375 0.0625 C3.2675 2.0425 3.5975 4.0225 3.9375 6.0625 C8.2275 6.0625 12.5175 6.0625 16.9375 6.0625 C16.9375 6.3925 16.9375 6.7225 16.9375 7.0625 C11.88747778 8.09840199 7.06333611 8.16501672 1.9375 8.0625 C1.9375 6.0825 1.9375 4.1025 1.9375 2.0625 C0.2875 2.0625 -1.3625 2.0625 -3.0625 2.0625 C-3.0625 4.0425 -3.0625 6.0225 -3.0625 8.0625 C-5.0425 8.0625 -7.0225 8.0625 -9.0625 8.0625 C-9.0625 7.4025 -9.0625 6.7425 -9.0625 6.0625 C-7.7425 6.0625 -6.4225 6.0625 -5.0625 6.0625 C-4.918125 5.258125 -4.77375 4.45375 -4.625 3.625 C-3.8465 0.0785 -3.8465 0.0785 0 0 Z " fill="#030100" transform="translate(24.0625,29.9375)"/>
<path d="M0 0 C0.33 0 0.66 0 1 0 C1.02888146 3.31248187 1.04675799 6.62493167 1.0625 9.9375 C1.07087891 10.88302734 1.07925781 11.82855469 1.08789062 12.80273438 C1.09111328 13.70185547 1.09433594 14.60097656 1.09765625 15.52734375 C1.10289307 16.35999756 1.10812988 17.19265137 1.11352539 18.05053711 C1 20 1 20 0 21 C-1.85772162 20.91015699 -3.71247985 20.75388139 -5.5625 20.5625 C-6.57441406 20.46066406 -7.58632813 20.35882813 -8.62890625 20.25390625 C-9.41136719 20.17011719 -10.19382813 20.08632813 -11 20 C-11 19.67 -11 19.34 -11 19 C-7.7 19 -4.4 19 -1 19 C-1.01160156 17.71222656 -1.02320313 16.42445312 -1.03515625 15.09765625 C-1.0445327 13.41927228 -1.05363305 11.74088674 -1.0625 10.0625 C-1.07087891 9.21236328 -1.07925781 8.36222656 -1.08789062 7.48632812 C-1.09111328 6.67744141 -1.09433594 5.86855469 -1.09765625 5.03515625 C-1.10289307 4.2862915 -1.10812988 3.53742676 -1.11352539 2.76586914 C-1 1 -1 1 0 0 Z " fill="#28110D" transform="translate(46,16)"/>
<path d="M0 0 C1.65 0 3.3 0 5 0 C5 1.32 5 2.64 5 4 C13.58 4 22.16 4 31 4 C31 4.33 31 4.66 31 5 C20.77 5 10.54 5 0 5 C0 3.35 0 1.7 0 0 Z " fill="#C1A782" transform="translate(1,11)"/>
<path d="M0 0 C0.66 0 1.32 0 2 0 C2 1.32 2 2.64 2 4 C5.63 4 9.26 4 13 4 C12.67 4.99 12.34 5.98 12 7 C10.18706911 6.85962479 8.3746557 6.71255111 6.5625 6.5625 C5.04849609 6.44068359 5.04849609 6.44068359 3.50390625 6.31640625 C1 6 1 6 0 5 C-0.04063832 3.33382885 -0.042721 1.66611905 0 0 Z " fill="#140806" transform="translate(0,31)"/>
<path d="M0 0 C0.33 0 0.66 0 1 0 C1.042721 1.66611905 1.04063832 3.33382885 1 5 C0.67 5.33 0.34 5.66 0 6 C-1.85772162 5.91015699 -3.71247985 5.75388139 -5.5625 5.5625 C-7.08037109 5.40974609 -7.08037109 5.40974609 -8.62890625 5.25390625 C-9.80259766 5.12822266 -9.80259766 5.12822266 -11 5 C-11 4.67 -11 4.34 -11 4 C-7.7 4 -4.4 4 -1 4 C-0.67 2.68 -0.34 1.36 0 0 Z " fill="#160907" transform="translate(46,31)"/>
</svg>
